<svg width="92" height="27" viewBox="0 0 92 27" fill="none" xmlns="http://www.w3.org/2000/svg">
<rect width="92" height="27" fill="#4A4A4A"/>
<path d="M24.368 4.636V13H23.276V9.208H19.016V13H17.924V4.636H19.016V8.308H23.276V4.636H24.368ZM32.0646 6.424V13H30.9726V12.028C30.7646 12.364 30.4726 12.628 30.0966 12.82C29.7286 13.004 29.3206 13.096 28.8726 13.096C28.3606 13.096 27.9006 12.992 27.4926 12.784C27.0846 12.568 26.7606 12.248 26.5206 11.824C26.2886 11.4 26.1726 10.884 26.1726 10.276V6.424H27.2526V10.132C27.2526 10.78 27.4166 11.28 27.7446 11.632C28.0726 11.976 28.5206 12.148 29.0886 12.148C29.6726 12.148 30.1326 11.968 30.4686 11.608C30.8046 11.248 30.9726 10.724 30.9726 10.036V6.424H32.0646ZM35.0004 7.648C35.2244 7.256 35.5524 6.936 35.9844 6.688C36.4164 6.44 36.9084 6.316 37.4604 6.316C38.0524 6.316 38.5844 6.456 39.0564 6.736C39.5284 7.016 39.9004 7.412 40.1724 7.924C40.4444 8.428 40.5804 9.016 40.5804 9.688C40.5804 10.352 40.4444 10.944 40.1724 11.464C39.9004 11.984 39.5244 12.388 39.0444 12.676C38.5724 12.964 38.0444 13.108 37.4604 13.108C36.8924 13.108 36.3924 12.984 35.9604 12.736C35.5364 12.488 35.2164 12.172 35.0004 11.788V13H33.9084V4.12H35.0004V7.648ZM39.4644 9.688C39.4644 9.192 39.3644 8.76 39.1644 8.392C38.9644 8.024 38.6924 7.744 38.3484 7.552C38.0124 7.36 37.6404 7.264 37.2324 7.264C36.8324 7.264 36.4604 7.364 36.1164 7.564C35.7804 7.756 35.5084 8.04 35.3004 8.416C35.1004 8.784 35.0004 9.212 35.0004 9.7C35.0004 10.196 35.1004 10.632 35.3004 11.008C35.5084 11.376 35.7804 11.66 36.1164 11.86C36.4604 12.052 36.8324 12.148 37.2324 12.148C37.6404 12.148 38.0124 12.052 38.3484 11.86C38.6924 11.66 38.9644 11.376 39.1644 11.008C39.3644 10.632 39.4644 10.192 39.4644 9.688Z" fill="#E3E3E3"/>
<path fill-rule="evenodd" clip-rule="evenodd" d="M28.4041 22V17.5H29.0041V19.583C29.31 19.2264 29.7637 19 30.2694 19C31.1883 19 31.936 19.7477 31.936 20.6667C31.9359 21.0365 31.8121 21.3958 31.5842 21.6871L32.5 22.6029L32.2054 22.8975L31.2896 21.9817C30.9983 22.2095 30.6391 22.3333 30.2694 22.3333C29.7637 22.3333 29.31 22.107 29.0041 21.7503V22H28.4041ZM30.2694 19.4167C30.9587 19.4167 31.5194 19.9773 31.5194 20.6667C31.5194 21.356 30.9587 21.9167 30.2694 21.9167C29.58 21.9167 29.0194 21.356 29.0194 20.6667C29.0194 19.9773 29.58 19.4167 30.2694 19.4167ZM23.684 22V17.818H23.138V19.654H21.008V17.818H20.462V22H21.008V20.104H23.138V22H23.684ZM27.5323 22V18.712H26.9863V20.518C26.9863 20.862 26.9023 21.124 26.7343 21.304C26.5663 21.484 26.3363 21.574 26.0443 21.574C25.7603 21.574 25.5363 21.488 25.3723 21.316C25.2083 21.14 25.1263 20.89 25.1263 20.566V18.712H24.5863V20.638C24.5863 20.942 24.6443 21.2 24.7603 21.412C24.8803 21.624 25.0423 21.784 25.2463 21.892C25.4503 21.996 25.6803 22.048 25.9363 22.048C26.1603 22.048 26.3643 22.002 26.5483 21.91C26.7363 21.814 26.8823 21.682 26.9863 21.514V22H27.5323Z" fill="#E3E3E3"/>
<path fill-rule="evenodd" clip-rule="evenodd" d="M39.8013 17V21.5H40.4013V21.2503C40.7072 21.607 41.161 21.8333 41.6666 21.8333C42.0364 21.8333 42.3956 21.7095 42.6868 21.4817L43.6027 22.3975L43.8973 22.1029L42.9814 21.1871C43.2093 20.8958 43.3332 20.5365 43.3333 20.1667C43.3333 19.2477 42.5856 18.5 41.6666 18.5C41.161 18.5 40.7072 18.7264 40.4013 19.083V17H39.8013ZM42.9166 20.1667C42.9166 19.4773 42.356 18.9167 41.6666 18.9167C40.9773 18.9167 40.4166 19.4773 40.4166 20.1667C40.4166 20.856 40.9773 21.4167 41.6666 21.4167C42.356 21.4167 42.9166 20.856 42.9166 20.1667Z" fill="#E3E3E3"/>
<rect x="53" y="4" width="9" height="9" rx="4.5" fill="#4FC4A8"/>
<rect x="53" y="16" width="9" height="9" rx="4.5" fill="#5CB9A3"/>
<rect x="67" y="16" width="9" height="9" rx="4.5" fill="#7CA89E"/>
<rect x="67" y="4" width="9" height="9" rx="4.5" fill="#94D6C6"/>
</svg>
